<svg width="642" height="642" viewBox="0 0 642 642" fill="none" xmlns="http://www.w3.org/2000/svg">
<circle cx="321" cy="321" r="321" fill="white"/>
<path d="M202.772 403.907C201.127 405.743 198.739 406.661 195.601 406.661H103.777C81.5212 406.661 62.6808 397.774 47.2741 379.991C36.4187 366.469 31 351.182 31 334.112V329.842C31 307.647 39.915 288.874 57.7539 273.507C71.3097 262.703 86.6538 257.293 103.777 257.293H195.601C198.453 257.293 200.769 258.113 202.558 259.744C204.337 261.384 205.231 263.764 205.231 266.893V277.776C205.231 280.477 204.408 282.759 202.772 284.604C201.127 286.459 198.739 287.377 195.601 287.377H122.609C104.77 287.377 94.0666 288.66 90.4988 291.227C85.9295 292.511 80.2247 296.504 73.3752 303.199C65.6674 312.897 61.8135 322.524 61.8135 332.07C61.8135 344.764 67.8045 356.316 79.7954 366.718C87.6374 373.279 99.4138 376.559 115.116 376.559H195.592C198.301 376.559 200.581 377.37 202.441 378.993C204.292 380.624 205.222 382.986 205.222 386.088V397.106C205.222 399.798 204.4 402.053 202.763 403.889L202.772 403.907Z" fill="#961914"/>
<path d="M599.127 374.518H445.149C441.661 374.518 438.943 375.543 437.074 377.567C435.223 379.563 434.285 382.157 434.285 385.286V396.232C434.285 399.691 435.322 402.383 437.361 404.237C439.372 406.073 441.992 407 445.149 407H599.127C602.623 407 605.341 405.93 607.219 403.827C609.061 401.768 609.991 399.209 609.991 396.223V385.277C609.991 381.818 608.909 379.118 606.781 377.255C604.697 375.436 602.122 374.509 599.118 374.509L599.127 374.518Z" fill="#961914"/>
<path d="M606.915 258.781C604.903 256.936 602.274 256 599.127 256H445.149C441.661 256 438.943 257.034 437.065 259.066C435.214 261.072 434.276 263.684 434.276 266.83V277.643C434.276 281.128 435.358 283.847 437.477 285.71C439.551 287.546 442.135 288.473 445.149 288.473H599.127C602.623 288.473 605.341 287.394 607.228 285.282C609.07 283.214 610 280.638 610 277.643V266.839C610 263.372 608.963 260.662 606.924 258.781H606.915Z" fill="#961914"/>
<path d="M599.127 315.963H445.149C441.67 315.963 438.961 316.953 437.083 318.905C435.223 320.839 434.276 323.424 434.276 326.588V337.615C434.276 341.091 435.313 343.801 437.352 345.664C439.363 347.509 441.983 348.445 445.149 348.445H599.127C602.623 348.445 605.341 347.367 607.228 345.254C609.07 343.177 610 340.61 610 337.615V326.588C610 323.103 608.918 320.411 606.772 318.602C604.697 316.855 602.122 315.963 599.127 315.963Z" fill="#961914"/>
<path d="M242.912 258.781C240.891 256.936 238.343 256 235.338 256H224.492C221.004 256 218.286 257.034 216.408 259.066C214.557 261.072 213.619 263.684 213.619 266.83V396.161C213.619 399.637 214.656 402.347 216.695 404.21C218.706 406.055 221.326 406.991 224.492 406.991H235.338C238.843 406.991 241.535 405.913 243.35 403.773C245.112 401.705 245.997 399.138 245.997 396.152V266.839C245.997 263.372 244.96 260.662 242.921 258.781H242.912ZM235.231 390.563C235.231 397.542 224.376 397.542 224.376 390.563V272.294C224.376 265.315 235.231 265.315 235.231 272.294V390.563Z" fill="#787473"/>
<path d="M424.913 258.781C422.902 256.936 420.273 256 417.125 256H263.147C259.66 256 256.942 257.034 255.064 259.066C253.213 261.072 252.274 263.684 252.274 266.83V277.643C252.274 281.128 253.356 283.847 255.475 285.71C257.55 287.546 260.134 288.473 263.138 288.473H306.104C314.053 288.473 317.406 289.516 318.819 290.398L319.078 290.523C322.127 291.575 323.737 297.012 323.737 306.265V396.161C323.737 399.789 324.783 402.543 326.84 404.344C328.843 406.109 331.454 407 334.61 407H345.671C349.167 407 351.886 405.921 353.764 403.809C355.606 401.732 356.535 399.165 356.535 396.17V306.274C356.535 303.065 356.679 300.337 356.956 298.162C357.215 296.103 357.653 294.57 358.252 293.598L358.386 293.322C359.442 290.158 364.905 288.482 374.169 288.482H417.125C420.621 288.482 423.34 287.403 425.226 285.291C427.068 283.223 427.998 280.647 427.998 277.652V266.839C427.998 263.372 426.961 260.662 424.922 258.781H424.913ZM410.508 277.705H353.477C350.33 278.703 347.102 280.54 345.868 283.918C345.626 319.466 345.376 355.015 345.135 390.563C345.09 397.534 334.235 397.542 334.279 390.563C334.521 355.478 334.762 320.384 335.004 285.3C334.118 280.905 330.139 278.757 326.464 277.705H268.906C261.904 277.705 261.904 266.884 268.906 266.884H410.508C417.51 266.884 417.51 277.705 410.508 277.705Z" fill="#787473"/>
</svg>
